<mxfile modified="2024-04-17T16:30:01.484Z" host="app.diagrams.net" agent="Mozilla/5.0 (Macintosh; Intel Mac OS X 10_15_7) AppleWebKit/537.36 (KHTML, like Gecko) Chrome/123.0.0.0 Safari/537.36" etag="vXHZP5F843-TtfymJL7N" version="24.2.0" type="github">
  <diagram id="Ht1M8jgEwFfnCIfOTk4-" name="Page-1">
    <mxGraphModel dx="1674" dy="811" grid="1" gridSize="10" guides="1" tooltips="1" connect="1" arrows="1" fold="1" page="1" pageScale="1" pageWidth="1169" pageHeight="827" math="0" shadow="0">
      <root>
        <mxCell id="0" />
        <mxCell id="1" parent="0" />
        <mxCell id="6Susz3sXEPyLjgMuZ4yq-1" value="" style="sketch=0;points=[[0,0,0],[0.25,0,0],[0.5,0,0],[0.75,0,0],[1,0,0],[0,1,0],[0.25,1,0],[0.5,1,0],[0.75,1,0],[1,1,0],[0,0.25,0],[0,0.5,0],[0,0.75,0],[1,0.25,0],[1,0.5,0],[1,0.75,0]];outlineConnect=0;fontColor=#232F3E;fillColor=#7AA116;strokeColor=#ffffff;dashed=0;verticalLabelPosition=bottom;verticalAlign=top;align=center;html=1;fontSize=12;fontStyle=0;aspect=fixed;shape=mxgraph.aws4.resourceIcon;resIcon=mxgraph.aws4.s3;" vertex="1" parent="1">
          <mxGeometry x="331" y="39" width="78" height="78" as="geometry" />
        </mxCell>
        <mxCell id="6Susz3sXEPyLjgMuZ4yq-2" value="Amazon S3" style="text;html=1;align=center;verticalAlign=middle;whiteSpace=wrap;rounded=0;fontSize=16;" vertex="1" parent="1">
          <mxGeometry x="230" y="129" width="280" height="30" as="geometry" />
        </mxCell>
        <mxCell id="6Susz3sXEPyLjgMuZ4yq-3" value="" style="sketch=0;outlineConnect=0;fontColor=#232F3E;gradientColor=none;fillColor=#7AA116;strokeColor=none;dashed=0;verticalLabelPosition=bottom;verticalAlign=top;align=center;html=1;fontSize=12;fontStyle=0;aspect=fixed;pointerEvents=1;shape=mxgraph.aws4.bucket;" vertex="1" parent="1">
          <mxGeometry x="332.5" y="279" width="75" height="78" as="geometry" />
        </mxCell>
        <mxCell id="6Susz3sXEPyLjgMuZ4yq-4" value="Amazon S3 bucket" style="text;html=1;align=center;verticalAlign=middle;whiteSpace=wrap;rounded=0;fontSize=16;" vertex="1" parent="1">
          <mxGeometry x="250" y="369" width="240" height="30" as="geometry" />
        </mxCell>
        <mxCell id="6Susz3sXEPyLjgMuZ4yq-5" value="" style="sketch=0;points=[[0,0,0],[0.25,0,0],[0.5,0,0],[0.75,0,0],[1,0,0],[0,1,0],[0.25,1,0],[0.5,1,0],[0.75,1,0],[1,1,0],[0,0.25,0],[0,0.5,0],[0,0.75,0],[1,0.25,0],[1,0.5,0],[1,0.75,0]];outlineConnect=0;fontColor=#232F3E;fillColor=#ED7100;strokeColor=#ffffff;dashed=0;verticalLabelPosition=bottom;verticalAlign=top;align=center;html=1;fontSize=12;fontStyle=0;aspect=fixed;shape=mxgraph.aws4.resourceIcon;resIcon=mxgraph.aws4.lambda;" vertex="1" parent="1">
          <mxGeometry x="671" y="39" width="78" height="78" as="geometry" />
        </mxCell>
        <mxCell id="6Susz3sXEPyLjgMuZ4yq-6" value="AWS Lambda" style="text;html=1;align=center;verticalAlign=middle;whiteSpace=wrap;rounded=0;fontSize=16;" vertex="1" parent="1">
          <mxGeometry x="680" y="129" width="60" height="30" as="geometry" />
        </mxCell>
        <mxCell id="6Susz3sXEPyLjgMuZ4yq-7" value="" style="sketch=0;outlineConnect=0;fontColor=#232F3E;gradientColor=none;fillColor=#ED7100;strokeColor=none;dashed=0;verticalLabelPosition=bottom;verticalAlign=top;align=center;html=1;fontSize=12;fontStyle=0;aspect=fixed;pointerEvents=1;shape=mxgraph.aws4.lambda_function;" vertex="1" parent="1">
          <mxGeometry x="670" y="278" width="79" height="79" as="geometry" />
        </mxCell>
        <mxCell id="6Susz3sXEPyLjgMuZ4yq-8" value="Update MongoDB Function" style="text;html=1;align=center;verticalAlign=middle;whiteSpace=wrap;rounded=0;fontSize=16;" vertex="1" parent="1">
          <mxGeometry x="589.5" y="369" width="240" height="30" as="geometry" />
        </mxCell>
        <mxCell id="6Susz3sXEPyLjgMuZ4yq-15" value="" style="edgeStyle=none;curved=1;rounded=0;orthogonalLoop=1;jettySize=auto;html=1;fontSize=12;startSize=8;endSize=8;" edge="1" parent="1" source="6Susz3sXEPyLjgMuZ4yq-11" target="6Susz3sXEPyLjgMuZ4yq-3">
          <mxGeometry relative="1" as="geometry">
            <mxPoint x="267" y="318" as="targetPoint" />
          </mxGeometry>
        </mxCell>
        <mxCell id="6Susz3sXEPyLjgMuZ4yq-11" value="" style="sketch=0;outlineConnect=0;fontColor=#232F3E;gradientColor=none;fillColor=#232F3D;strokeColor=none;dashed=0;verticalLabelPosition=bottom;verticalAlign=top;align=center;html=1;fontSize=12;fontStyle=0;aspect=fixed;pointerEvents=1;shape=mxgraph.aws4.client;" vertex="1" parent="1">
          <mxGeometry x="70" y="280" width="78" height="76" as="geometry" />
        </mxCell>
        <mxCell id="6Susz3sXEPyLjgMuZ4yq-12" value="Client" style="text;html=1;align=center;verticalAlign=middle;whiteSpace=wrap;rounded=0;fontSize=16;" vertex="1" parent="1">
          <mxGeometry x="79" y="369" width="60" height="30" as="geometry" />
        </mxCell>
        <mxCell id="6Susz3sXEPyLjgMuZ4yq-16" value="파일&lt;div&gt;&amp;nbsp;업로드&lt;/div&gt;" style="text;html=1;align=center;verticalAlign=middle;whiteSpace=wrap;rounded=0;fontSize=16;" vertex="1" parent="1">
          <mxGeometry x="210" y="260" width="60" height="30" as="geometry" />
        </mxCell>
        <mxCell id="6Susz3sXEPyLjgMuZ4yq-18" value="" style="endArrow=classic;html=1;rounded=0;fontSize=12;startSize=8;endSize=8;curved=1;" edge="1" parent="1" source="6Susz3sXEPyLjgMuZ4yq-3" target="6Susz3sXEPyLjgMuZ4yq-7">
          <mxGeometry width="50" height="50" relative="1" as="geometry">
            <mxPoint x="640" y="380" as="sourcePoint" />
            <mxPoint x="690" y="330" as="targetPoint" />
          </mxGeometry>
        </mxCell>
        <mxCell id="6Susz3sXEPyLjgMuZ4yq-19" value="람다 함수 실행" style="text;html=1;align=center;verticalAlign=middle;whiteSpace=wrap;rounded=0;fontSize=16;" vertex="1" parent="1">
          <mxGeometry x="480" y="260" width="109.5" height="30" as="geometry" />
        </mxCell>
        <mxCell id="6Susz3sXEPyLjgMuZ4yq-21" value="" style="shape=image;verticalLabelPosition=bottom;labelBackgroundColor=default;verticalAlign=top;aspect=fixed;imageAspect=0;image=https://www.opc-router.de/wp-content/uploads/2021/03/mongodb_thumbnail.png;" vertex="1" parent="1">
          <mxGeometry x="910" y="129" width="139.78" height="188" as="geometry" />
        </mxCell>
        <mxCell id="6Susz3sXEPyLjgMuZ4yq-23" value="" style="edgeStyle=elbowEdgeStyle;elbow=horizontal;endArrow=classic;html=1;curved=0;rounded=0;endSize=8;startSize=8;fontSize=12;entryX=0;entryY=0.5;entryDx=0;entryDy=0;" edge="1" parent="1" source="6Susz3sXEPyLjgMuZ4yq-7" target="6Susz3sXEPyLjgMuZ4yq-21">
          <mxGeometry width="50" height="50" relative="1" as="geometry">
            <mxPoint x="800" y="320" as="sourcePoint" />
            <mxPoint x="850" y="270" as="targetPoint" />
          </mxGeometry>
        </mxCell>
        <mxCell id="6Susz3sXEPyLjgMuZ4yq-24" value="DB 업데이트" style="text;html=1;align=center;verticalAlign=middle;whiteSpace=wrap;rounded=0;fontSize=16;" vertex="1" parent="1">
          <mxGeometry x="810" y="180" width="99.5" height="30" as="geometry" />
        </mxCell>
        <mxCell id="6Susz3sXEPyLjgMuZ4yq-25" value="" style="rounded=0;whiteSpace=wrap;html=1;" vertex="1" parent="1">
          <mxGeometry x="300" y="510" width="120" height="60" as="geometry" />
        </mxCell>
        <mxCell id="6Susz3sXEPyLjgMuZ4yq-26" value="Front" style="text;html=1;align=center;verticalAlign=middle;whiteSpace=wrap;rounded=0;fontSize=16;" vertex="1" parent="1">
          <mxGeometry x="330" y="525" width="60" height="30" as="geometry" />
        </mxCell>
        <mxCell id="6Susz3sXEPyLjgMuZ4yq-27" value="" style="edgeStyle=elbowEdgeStyle;elbow=horizontal;endArrow=classic;html=1;curved=0;rounded=0;endSize=8;startSize=8;fontSize=12;entryX=1;entryY=0.5;entryDx=0;entryDy=0;exitX=0.5;exitY=1;exitDx=0;exitDy=0;" edge="1" parent="1" source="6Susz3sXEPyLjgMuZ4yq-21" target="6Susz3sXEPyLjgMuZ4yq-25">
          <mxGeometry width="50" height="50" relative="1" as="geometry">
            <mxPoint x="720" y="480" as="sourcePoint" />
            <mxPoint x="770" y="430" as="targetPoint" />
            <Array as="points">
              <mxPoint x="940" y="460" />
            </Array>
          </mxGeometry>
        </mxCell>
        <mxCell id="6Susz3sXEPyLjgMuZ4yq-28" value="" style="edgeStyle=elbowEdgeStyle;elbow=horizontal;endArrow=classic;html=1;curved=0;rounded=0;endSize=8;startSize=8;fontSize=12;entryX=1;entryY=0.5;entryDx=0;entryDy=0;exitX=0.5;exitY=1;exitDx=0;exitDy=0;" edge="1" parent="1">
          <mxGeometry width="50" height="50" relative="1" as="geometry">
            <mxPoint x="980" y="340" as="sourcePoint" />
            <mxPoint x="420" y="563" as="targetPoint" />
            <Array as="points">
              <mxPoint x="940" y="483" />
            </Array>
          </mxGeometry>
        </mxCell>
        <mxCell id="6Susz3sXEPyLjgMuZ4yq-29" value="상품 정보 취득 API" style="text;html=1;align=center;verticalAlign=middle;whiteSpace=wrap;rounded=0;fontSize=16;" vertex="1" parent="1">
          <mxGeometry x="450" y="510" width="130" height="30" as="geometry" />
        </mxCell>
        <mxCell id="6Susz3sXEPyLjgMuZ4yq-30" value="공지사항 취득 API" style="text;html=1;align=center;verticalAlign=middle;whiteSpace=wrap;rounded=0;fontSize=16;" vertex="1" parent="1">
          <mxGeometry x="450" y="565" width="130" height="30" as="geometry" />
        </mxCell>
      </root>
    </mxGraphModel>
  </diagram>
</mxfile>
